<svg xmlns="http://www.w3.org/2000/svg" viewBox="0 0 100 100">
  <g>
    <defs>
      <radialGradient id="dgrad" cx="50%" cy="40%" r="60%">
        <stop offset="0%" stop-color="#FFFFFF"/>
        <stop offset="100%" stop-color="#FFF59D"/>
      </radialGradient>
    </defs>
    <g>
      <ellipse rx="6" ry="18" cx="50" cy="28" transform="rotate(0 50 50)" fill="#FFF59D" stroke="#FFB300"/>
      <ellipse rx="6" ry="18" cx="50" cy="28" transform="rotate(22.5 50 50)" fill="#FFF59D" stroke="#FFB300"/>
      <ellipse rx="6" ry="18" cx="50" cy="28" transform="rotate(45 50 50)" fill="#FFF59D" stroke="#FFB300"/>
      <ellipse rx="6" ry="18" cx="50" cy="28" transform="rotate(67.5 50 50)" fill="#FFF59D" stroke="#FFB300"/>
      <ellipse rx="6" ry="18" cx="50" cy="28" transform="rotate(90 50 50)" fill="#FFF59D" stroke="#FFB300"/>
      <ellipse rx="6" ry="18" cx="50" cy="28" transform="rotate(112.5 50 50)" fill="#FFF59D" stroke="#FFB300"/>
      <ellipse rx="6" ry="18" cx="50" cy="28" transform="rotate(135 50 50)" fill="#FFF59D" stroke="#FFB300"/>
      <ellipse rx="6" ry="18" cx="50" cy="28" transform="rotate(157.5 50 50)" fill="#FFF59D" stroke="#FFB300"/>
      <ellipse rx="6" ry="18" cx="50" cy="28" transform="rotate(180 50 50)" fill="#FFF59D" stroke="#FFB300"/>
      <ellipse rx="6" ry="18" cx="50" cy="28" transform="rotate(202.5 50 50)" fill="#FFF59D" stroke="#FFB300"/>
      <ellipse rx="6" ry="18" cx="50" cy="28" transform="rotate(225 50 50)" fill="#FFF59D" stroke="#FFB300"/>
      <ellipse rx="6" ry="18" cx="50" cy="28" transform="rotate(247.5 50 50)" fill="#FFF59D" stroke="#FFB300"/>
      <ellipse rx="6" ry="18" cx="50" cy="28" transform="rotate(270 50 50)" fill="#FFF59D" stroke="#FFB300"/>
      <ellipse rx="6" ry="18" cx="50" cy="28" transform="rotate(292.5 50 50)" fill="#FFF59D" stroke="#FFB300"/>
      <ellipse rx="6" ry="18" cx="50" cy="28" transform="rotate(315 50 50)" fill="#FFF59D" stroke="#FFB300"/>
      <ellipse rx="6" ry="18" cx="50" cy="28" transform="rotate(337.5 50 50)" fill="#FFF59D" stroke="#FFB300"/>
    </g>
    <circle cx="50" cy="50" r="10" fill="#FFB300" />
  </g>
</svg>